<svg width="335" height="53" viewBox="0 0 335 53" fill="none" xmlns="http://www.w3.org/2000/svg">
<g filter="url(#filter0_d_92_3882)">
<rect x="4" width="327" height="45" rx="10" fill="#FEE500"/>
<g clip-path="url(#clip0_92_3882)">
<path fill-rule="evenodd" clip-rule="evenodd" d="M122.5 14.0996C117.529 14.0996 113.5 17.2126 113.5 21.0519C113.5 23.4396 115.058 25.5446 117.432 26.7966L116.433 30.4441C116.345 30.7664 116.713 31.0233 116.996 30.8365L121.373 27.9478C121.743 27.9835 122.118 28.0043 122.5 28.0043C127.47 28.0043 131.5 24.8914 131.5 21.0519C131.5 17.2126 127.47 14.0996 122.5 14.0996Z" fill="black"/>
</g>
<path d="M146.715 16.215C146.7 20.79 144.615 23.85 140.79 25.86L139.8 24.75C141.735 23.865 143.355 22.44 144.27 20.595L140.355 21.015L140.115 19.68L144.78 19.335C144.945 18.735 145.065 18.12 145.11 17.46H140.79V16.215H146.715ZM150.33 14.82V20.04H152.4V21.315H150.33V28.185H148.785V14.82H150.33ZM159.693 16.215C159.678 20.79 157.593 23.85 153.768 25.86L152.778 24.75C154.713 23.865 156.333 22.44 157.248 20.595L153.333 21.015L153.093 19.68L157.758 19.335C157.923 18.735 158.043 18.12 158.088 17.46H153.768V16.215H159.693ZM163.308 14.82V20.04H165.378V21.315H163.308V28.185H161.763V14.82H163.308ZM177.982 26.475H165.907V25.245H171.157V22.965C168.682 22.725 167.107 21.315 167.107 19.32C167.107 17.115 169.042 15.645 171.937 15.645C174.877 15.645 176.797 17.115 176.797 19.32C176.797 21.33 175.192 22.74 172.687 22.98V25.245H177.982V26.475ZM175.252 19.335C175.252 17.91 173.947 16.905 171.937 16.905C169.972 16.905 168.652 17.91 168.652 19.335C168.652 20.745 169.972 21.705 171.937 21.705C173.932 21.705 175.252 20.745 175.252 19.335ZM193.731 23.025H189.606V25.26H194.901V26.49H182.826V25.26H188.076V23.025H184.371V18.705H191.811V16.98H184.326V15.75H193.341V19.95H185.916V21.78H193.731V23.025ZM207.879 26.235H195.804V24.99H207.879V26.235ZM206.304 16.26C206.304 19.8 206.079 22.305 205.719 24.06L204.204 23.865C204.534 22.53 204.759 19.635 204.759 17.475H197.199V16.26H206.304ZM219.778 24.51H218.248V14.82H219.778V24.51ZM220.093 27.795H210.943V23.595H212.473V26.565H220.093V27.795ZM216.028 19.08C216.028 20.985 214.648 22.35 212.608 22.35C210.568 22.35 209.158 20.985 209.158 19.095C209.158 17.19 210.553 15.81 212.608 15.81C214.648 15.81 216.028 17.175 216.028 19.08ZM214.498 19.08C214.498 17.91 213.778 17.085 212.608 17.085C211.468 17.085 210.703 17.94 210.703 19.08C210.703 20.175 211.468 21.045 212.608 21.045C213.778 21.045 214.498 20.175 214.498 19.08Z" fill="black" fill-opacity="0.85"/>
</g>
<defs>
<filter id="filter0_d_92_3882" x="0" y="0" width="335" height="53" filterUnits="userSpaceOnUse" color-interpolation-filters="sRGB">
<feFlood flood-opacity="0" result="BackgroundImageFix"/>
<feColorMatrix in="SourceAlpha" type="matrix" values="0 0 0 0 0 0 0 0 0 0 0 0 0 0 0 0 0 0 127 0" result="hardAlpha"/>
<feOffset dy="4"/>
<feGaussianBlur stdDeviation="2"/>
<feComposite in2="hardAlpha" operator="out"/>
<feColorMatrix type="matrix" values="0 0 0 0 0 0 0 0 0 0 0 0 0 0 0 0 0 0 0.25 0"/>
<feBlend mode="normal" in2="BackgroundImageFix" result="effect1_dropShadow_92_3882"/>
<feBlend mode="normal" in="SourceGraphic" in2="effect1_dropShadow_92_3882" result="shape"/>
</filter>
<clipPath id="clip0_92_3882">
<rect width="17.9999" height="18" fill="white" transform="translate(113.5 13.5)"/>
</clipPath>
</defs>
</svg>
